HIERARCHY
ROOT hip
{
	OFFSET 0.000000 0.000000 0.000000 
	CHANNELS 6 Xposition Yposition Zposition Xrotation Zrotation Yrotation
	JOINT abdomen
	{
		OFFSET 0.000000 3.402643 0.000000 
		CHANNELS 3 Xrotation Zrotation Yrotation
		JOINT chest
		{
			OFFSET 0.000000 8.438565 -0.680529 
			CHANNELS 3 Xrotation Zrotation Yrotation
			JOINT neck
			{
				OFFSET 0.000000 10.207942 -0.272212 
				CHANNELS 3 Xrotation Zrotation Yrotation
				JOINT head
				{
					OFFSET 0.000000 3.130431 0.000000 
					CHANNELS 3 Xrotation Zrotation Yrotation
					End Site
					{
						OFFSET 0.000000 3.130435 0.000000 
					}
				}
			}
			JOINT lCollar
			{
				OFFSET 3.470700 6.669187 -0.816635 
				CHANNELS 3 Yrotation Zrotation Xrotation
				JOINT lShldr
				{
					OFFSET 3.198488 0.000000 0.000000 
					CHANNELS 3 Zrotation Yrotation Xrotation
					JOINT lForeArm
					{
						OFFSET 10.139888 0.000000 0.000000 
						CHANNELS 3 Yrotation Zrotation Xrotation
						JOINT lHand
						{
							OFFSET 8.370511 0.000000 0.000000 
							CHANNELS 3 Zrotation Yrotation Xrotation
							End Site
							{
								OFFSET 4.083176 0.000000 0.000000 
							}
						}
					}
				}
			}
			JOINT rCollar
			{
				OFFSET -3.470700 6.669187 -0.816635 
				CHANNELS 3 Yrotation Zrotation Xrotation
				JOINT rShldr
				{
					OFFSET -3.198488 0.000000 0.000000 
					CHANNELS 3 Zrotation Yrotation Xrotation
					JOINT rForeArm
					{
						OFFSET -10.139888 0.000000 0.000000 
						CHANNELS 3 Yrotation Zrotation Xrotation
						JOINT rHand
						{
							OFFSET -8.370511 0.000000 0.000000 
							CHANNELS 3 Zrotation Yrotation Xrotation
							End Site
							{
								OFFSET -4.083176 0.000000 0.000000 
							}
						}
					}
				}
			}
		}
	}
	JOINT lThigh
	{
		OFFSET 5.308129 -1.633274 1.361059 
		CHANNELS 3 Xrotation Zrotation Yrotation
		JOINT lShin
		{
			OFFSET -2.041588 -20.007561 0.000000 
			CHANNELS 3 Xrotation Zrotation Yrotation
			JOINT lFoot
			{
				OFFSET 0.000000 -19.190928 -1.224953 
				CHANNELS 3 Xrotation Yrotation Zrotation
				End Site
				{
					OFFSET 0.000000 -2.449906 4.627600 
				}
			}
		}
	}
	JOINT rThigh
	{
		OFFSET -5.308129 -1.633274 1.361059 
		CHANNELS 3 Xrotation Zrotation Yrotation
		JOINT rShin
		{
			OFFSET 2.041588 -20.007561 0.000000 
			CHANNELS 3 Xrotation Zrotation Yrotation
			JOINT rFoot
			{
				OFFSET 0.000000 -19.190928 -1.224953 
				CHANNELS 3 Xrotation Yrotation Zrotation
				End Site
				{
					OFFSET 0.000000 -2.449906 4.627600 
				}
			}
		}
	}
}
MOTION
Frames: 11
Frame Time: 0.033333
-8.776942 49.711098 -4.481850 0.371269 1.604754 34.761959 0.000000 0.000000 0.000000 5.157866 0.692347 -3.095831 9.050460 0.263397 -2.617205 -14.005450 -1.542927 0.420033 -17.512608 -4.352931 4.783084 -18.325800 -66.746895 -62.351028 -60.947540 -2.490552 2.526628 6.372443 5.275941 -3.415582 8.816450 13.254004 3.886329 -5.061185 56.383144 -61.759655 54.911499 1.183356 -10.753023 -9.707182 -11.543564 -2.921041 -3.220837 5.055972 0.386360 -1.752400 -2.660621 8.408937 5.409185 -0.039954 -0.197725 -1.171787 -10.307013 -6.063375 1.671234 3.235880 -24.243473 3.041637 0.029051 2.336689 
-8.729098 49.696869 -4.695913 0.559475 1.245688 34.081577 0.000000 0.000000 0.000000 5.270466 0.234029 -3.115248 8.928367 1.238969 -2.588341 -13.967685 -2.118511 1.397335 -16.221910 -5.135293 4.782600 -14.977536 -68.374916 -64.750008 -64.573547 -3.095413 0.608399 6.115981 4.857685 -3.445095 9.591774 13.300763 3.905894 -6.339443 56.014858 -63.130680 54.523018 1.028578 -9.330541 -10.320320 -11.275723 -2.906759 -3.501460 5.315653 0.608528 -1.782175 -2.865754 8.182677 5.457190 -0.025345 -0.367321 -2.333269 -10.267736 -5.730503 2.548475 3.252400 -23.568785 2.935102 0.005317 1.977544 
-8.708197 49.680420 -4.912977 -0.085978 1.400176 33.028893 0.000000 0.000000 0.000000 6.220703 0.000000 -1.787109 9.359385 1.463823 -2.139221 -14.102072 -1.728399 0.664349 -14.951529 -5.029320 5.633224 -11.333050 -71.364136 -68.185143 -63.736546 -3.258019 -1.660461 5.545127 5.229966 -3.432480 10.673659 13.027535 4.848303 -6.972412 53.708912 -64.646416 55.745983 1.179038 -8.972574 -11.059940 -11.310161 -2.849989 -2.996118 5.601301 0.989860 -1.435869 -3.016527 8.096548 5.300846 -0.040081 -0.321044 -2.353360 -10.065545 -5.435165 2.859864 3.037494 -22.603752 3.171502 0.005719 1.728082 
-8.683936 49.642460 -5.156970 -0.206815 1.469274 33.303432 0.000000 0.000000 0.000000 6.796875 0.000000 -1.347656 9.591591 0.985622 -2.168152 -14.625436 -1.357417 -0.146675 -15.358123 -4.314309 6.211662 -9.712972 -72.488098 -70.490540 -63.345669 -3.333388 -2.613933 6.300603 5.476860 -3.407809 10.216612 12.275087 5.544444 -7.096012 53.152046 -65.798447 56.531681 1.266469 -7.772615 -10.902462 -11.465231 -2.847092 -3.961246 5.395352 0.858133 0.165311 -3.055713 8.119226 4.911721 -0.003634 -0.186195 -2.362649 -10.257689 -5.522497 2.811714 3.011500 -22.724556 3.458076 0.002305 1.942112 
-8.633561 49.581440 -5.396837 -0.194952 1.415703 34.074562 0.000000 0.000000 0.000000 7.245775 0.009760 -1.875000 9.522605 0.663464 -2.431704 -14.366287 -1.542968 0.039048 -16.124643 -4.347554 6.581203 -7.480689 -72.147316 -72.772713 -63.962585 -3.412754 -2.514518 6.090878 5.532439 -3.420630 9.260092 11.992818 6.016784 -7.922850 53.723221 -66.257599 56.415817 1.246759 -6.970376 -11.078464 -11.586900 -2.827669 -5.423573 5.023595 0.475549 2.242453 -2.914039 8.256371 4.316397 0.008444 0.002844 -2.665269 -10.569966 -5.766024 3.319784 3.163031 -23.215199 3.439596 0.026965 2.291517 
-8.540416 49.522289 -5.638035 -0.399676 1.369686 34.415733 0.000000 0.000000 0.000000 7.796203 -0.078058 -2.373058 9.692545 0.741408 -2.627113 -14.193616 -1.738226 0.459069 -16.328756 -4.206252 7.069592 -5.399932 -71.920631 -74.591690 -64.185013 -3.416999 -2.001168 5.552574 5.701521 -3.422136 8.749418 12.015569 6.518156 -8.255325 54.109398 -66.311554 56.493011 1.237129 -6.664627 -11.799522 -11.601507 -2.775078 -6.337531 4.745825 0.303263 3.714217 -2.795890 8.651248 3.786929 0.035938 0.280482 -2.596901 -10.775268 -5.954077 3.349252 3.250446 -23.240797 3.655960 0.037802 2.592818 
-8.408638 49.464066 -5.867186 -0.441502 1.264510 34.443207 0.000000 0.000000 0.000000 8.126613 -0.253651 -2.568420 9.724333 0.858382 -2.754182 -13.365172 -1.601487 0.556696 -16.168545 -3.907671 7.393062 -4.658903 -72.042442 -74.919128 -63.665333 -3.381858 -2.227823 5.409794 5.505132 -3.426271 8.625666 12.178883 6.807108 -7.165038 53.704105 -65.617661 58.122765 1.382724 -7.055289 -11.761257 -11.478904 -2.780238 -7.244660 4.491179 0.095654 5.002940 -2.728646 9.498331 3.461950 0.016463 0.511662 -2.861090 -11.021334 -6.125103 3.611115 3.370274 -23.015079 3.767169 0.067754 2.870279 
-8.238728 49.415447 -6.094483 0.076408 1.039855 34.371723 0.000000 0.000000 0.000000 7.893224 -0.487779 -2.597811 9.390132 0.497472 -2.753972 -12.229926 -0.986323 0.195284 -16.137693 -3.899901 7.150531 -5.777237 -71.370270 -72.377777 -63.303280 -3.357726 -3.206565 6.233215 5.453424 -3.416570 8.482252 11.899290 6.647560 -4.517903 53.097771 -63.536243 60.913273 1.543721 -7.633277 -11.499649 -11.559843 -2.802568 -8.179348 4.021098 -0.261464 5.534757 -2.692467 10.168898 3.209973 0.037095 0.756989 -3.857097 -11.502306 -6.201455 4.245794 3.379847 -22.668121 3.698210 0.085219 3.227736 
-8.095708 49.423405 -6.261862 0.099743 0.690256 33.743103 0.000000 0.000000 0.000000 7.857490 -0.400083 -2.246176 9.185575 0.097579 -2.275387 -11.269057 -0.556640 -0.048921 -15.724636 -3.737157 7.155323 -9.181709 -70.475494 -68.623596 -63.448627 -3.217683 -1.885183 5.750547 5.812615 -3.411652 8.353196 11.596200 6.682248 -1.394164 52.750332 -60.913021 63.560505 1.663395 -7.031156 -11.629646 -11.931722 -2.755727 -8.327100 4.236654 -0.091705 5.444850 -2.848133 10.481596 3.109160 0.034782 0.849506 -3.738478 -11.290420 -5.921923 3.084942 3.285660 -22.438236 4.490877 0.086449 2.859030 
-7.937893 49.470394 -6.364616 -0.230227 0.583049 32.765636 0.000000 0.000000 0.000000 7.975210 -0.488012 -1.904394 9.123075 -0.068331 -1.660167 -10.646791 -0.576167 0.224598 -15.016513 -3.775417 7.284238 -13.993574 -69.343597 -63.934608 -63.917667 -3.112431 -0.030011 4.920597 6.118731 -3.413626 8.499536 11.549583 6.825114 1.843083 52.366081 -57.793530 65.645088 1.738346 -7.277450 -11.892204 -12.088018 -2.717913 -7.756490 4.565994 0.327050 5.080709 -3.089026 10.858681 3.104449 0.058408 0.909447 -2.967917 -11.029232 -5.678838 1.612065 3.118031 -21.290108 5.233344 0.123683 2.874040 
-7.744849 49.495964 -6.451577 -0.343236 0.474195 31.583248 0.000000 0.000000 0.000000 7.757576 -0.800445 -1.660403 8.987371 -0.146454 -1.171896 -10.179003 -0.429675 0.429675 -14.314109 -4.021885 7.054097 -18.349697 -67.293213 -58.415821 -64.576340 -3.079628 0.071689 5.403804 6.034301 -3.411946 8.975623 11.650742 6.631155 5.805384 52.027267 -54.432381 67.178406 1.721325 -6.828173 -11.855600 -12.183808 -2.711985 -7.565866 4.656680 0.526782 5.217858 -3.246495 12.181555 2.951473 0.031529 1.117781 -2.919456 -11.001317 -5.462333 1.299775 3.040724 -19.700388 5.425903 0.107891 3.051556 
